<?xml version="1.0" standalone="no"?>
<!DOCTYPE svg PUBLIC "-//W3C//DTD SVG 20010904//EN"
 "http://www.w3.org/TR/2001/REC-SVG-20010904/DTD/svg10.dtd">
<svg version="1.0" xmlns="http://www.w3.org/2000/svg"
 width="774.000000pt" height="774.000000pt" viewBox="0 0 774.000000 774.000000"
 preserveAspectRatio="xMidYMid meet">
<metadata>
Created by potrace 1.11, written by Peter Selinger 2001-2013
</metadata>
<g transform="translate(0.000000,774.000000) scale(0.100000,-0.100000)"
fill="#000000" stroke="none">
<path d="M3690 7723 c-622 -33 -1200 -203 -1732 -509 -784 -452 -1378 -1154
-1697 -2005 -306 -820 -320 -1730 -40 -2564 187 -556 488 -1049 894 -1464 382
-391 796 -673 1276 -871 68 -28 147 -60 174 -71 104 -43 233 -88 238 -83 3 3
42 -4 88 -16 187 -47 445 -91 662 -111 190 -17 642 -6 822 20 480 71 852 189
1260 400 194 100 460 268 590 373 289 234 523 472 721 733 366 484 625 1080
723 1667 41 240 51 375 52 638 0 307 -15 477 -66 740 -126 650 -402 1232 -833
1755 -91 110 -390 409 -491 490 -667 538 -1379 819 -2215 874 -147 10 -291 12
-426 4z"/>
</g>
</svg>
